#define bullet_width 12
#define bullet_height 12
static unsigned char bullet_bits[] = {
   0x00, 0x00, 0x00, 0x00, 0x10, 0x00, 0x30, 0x00, 0x70, 0x00, 0xf0, 0x00,
   0x70, 0x00, 0x30, 0x00, 0x10, 0x00, 0x00, 0x00, 0x00, 0x00, 0x00, 0x00 };
