#define close_pressed_width 13
#define close_pressed_height 12
static unsigned char close_pressed_bits[] = {
   0x00, 0x00, 0x00, 0x00, 0x00, 0x00, 0x18, 0x06, 0x30, 0x03, 0xe0, 0x01,
   0xc0, 0x00, 0xe0, 0x01, 0x30, 0x03, 0x18, 0x06, 0x00, 0x00, 0x00, 0x00 };
