#define max_pressed_width 12
#define max_pressed_height 12
static unsigned char max_pressed_bits[] = {
   0x00, 0x00, 0x00, 0x00, 0xfc, 0x07, 0xfc, 0x07, 0x04, 0x04, 0x04, 0x04,
   0x04, 0x04, 0x04, 0x04, 0x04, 0x04, 0x04, 0x04, 0xfc, 0x07, 0x00, 0x00 };
